<svg xmlns="http://www.w3.org/2000/svg" viewBox="0 0 1280 720" width="384" height="216">
	<style>
		tspan { white-space:pre }
	</style>
	<path id="Nu " fill="#52b8a1" d="M616.7 301L616.7 377.5L554.06 301L529.94 301L529.94 427L558.74 427L558.74 350.5L621.56 427L645.5 427L645.5 301ZM742.88 330.16L742.88 378.04C742.88 395.86 733.52 404.14 720.56 404.14C708.14 404.14 700.94 396.94 700.94 380.74L700.94 330.16L672.86 330.16L672.86 384.88C672.86 414.76 689.96 428.44 714.26 428.44C726.14 428.44 736.94 423.94 744.32 415.48L744.32 427L770.96 427L770.96 330.16Z" />
	<path id="Nu " fill="#e8b137" d="M606.7 296L606.7 372.5L544.06 296L519.94 296L519.94 422L548.74 422L548.74 345.5L611.56 422L635.5 422L635.5 296ZM732.88 325.16L732.88 373.04C732.88 390.86 723.52 399.14 710.56 399.14C698.14 399.14 690.94 391.94 690.94 375.74L690.94 325.16L662.86 325.16L662.86 379.88C662.86 409.76 679.96 423.44 704.26 423.44C716.14 423.44 726.94 418.94 734.32 410.48L734.32 422L760.96 422L760.96 325.16Z" />
</svg>